# This file uses centimeters as units for non-parametric coordinates.

mtllib transporterband.mtl
g default
v -0.926692 -0.080000 0.325101
v -0.997731 -0.080000 0.325101
v -0.997731 -0.080000 -0.003923
v -0.926692 -0.080000 -0.003923
v -0.074224 -0.920000 0.325101
v -0.003185 -0.920000 0.325101
v -0.003185 -0.920000 -0.003923
v -0.074224 -0.920000 -0.003923
v -0.926692 -0.920000 -0.003923
v -0.926692 -0.920000 0.325101
v -0.926692 -1.000000 0.325101
v -0.926692 -1.000000 -0.003923
v -0.074224 -1.000000 0.325101
v -0.997731 -0.920000 0.325101
v -0.926692 0.000000 0.325101
v -0.074224 -0.000000 0.325101
v -0.074224 -0.080000 0.325101
v -0.003185 -0.080000 0.325101
v -0.074224 -1.000000 -0.003923
v -0.074224 -0.000000 -0.003923
v -0.074224 -0.080000 -0.003923
v -0.926692 0.000000 -0.003923
v -0.997731 -1.000000 -0.003923
v -0.997731 -0.920000 -0.003923
v -0.997731 0.000000 -0.003923
v -0.003185 -0.080000 -0.003923
v -0.003185 -0.000000 -0.003923
v -0.003185 -0.000000 0.425101
v -0.003185 -1.000000 0.425101
v -0.003185 -1.000000 -0.003923
v -0.997731 0.000000 0.425101
v -0.997731 -1.000000 0.425101
vt 0.815178 0.250000
vt 0.826041 0.250000
vt 0.826041 0.058272
vt 0.815178 0.058272
vt 0.315178 0.250000
vt 0.326041 0.250000
vt 0.326041 0.058272
vt 0.315178 0.058272
vt 0.412500 0.691728
vt 0.412500 0.500000
vt 0.395833 0.500000
vt 0.395833 0.691728
vt 0.412500 0.250000
vt 0.395833 0.250000
vt 0.395833 0.500000
vt 0.412500 0.500000
vt 0.412500 0.520833
vt 0.587500 0.520833
vt 0.587500 0.500000
vt 0.604167 0.500000
vt 0.604167 0.250000
vt 0.587500 0.250000
vt 0.587500 0.229167
vt 0.412500 0.229167
vt 0.395833 0.058272
vt 0.395833 0.250000
vt 0.412500 0.250000
vt 0.412500 0.058272
vt 0.587500 0.250000
vt 0.604167 0.250000
vt 0.604167 0.058272
vt 0.587500 0.058272
vt 0.587500 0.691728
vt 0.604167 0.691728
vt 0.604167 0.500000
vt 0.587500 0.500000
vt 0.395000 0.767857
vt 0.375000 0.767857
vt 0.375000 0.750000
vt 0.395000 0.750000
vt 0.625000 0.767857
vt 0.605000 0.767857
vt 0.605000 0.750000
vt 0.625000 0.750000
vt 0.605000 0.191728
vt 0.605000 0.000000
vt 0.625000 0.000000
vt 0.625000 0.250000
vt 0.375000 0.250000
vt 0.375000 0.000000
vt 0.395000 0.000000
vt 0.395000 0.191728
vt 0.625000 0.500000
vt 0.375000 0.500000
vt 0.395000 0.558272
vt 0.395000 0.750000
vt 0.605000 0.750000
vt 0.605000 0.558272
vt 0.375000 0.982143
vt 0.395000 0.982143
vt 0.395000 1.000000
vt 0.375000 1.000000
vt 0.857143 0.191728
vt 0.857143 0.000000
vt 0.875000 0.000000
vt 0.875000 0.250000
vt 0.642857 0.000000
vt 0.642857 0.191728
vt 0.142857 0.191728
vt 0.357143 0.191728
vt 0.357143 0.000000
vt 0.125000 0.250000
vt 0.125000 0.000000
vt 0.142857 0.000000
vt 0.605000 0.982143
vt 0.625000 0.982143
vt 0.625000 1.000000
vt 0.605000 1.000000
vt 0.184822 0.250000
vt 0.184822 0.058272
vt 0.173959 0.058272
vt 0.173959 0.250000
vt 0.684822 0.250000
vt 0.684822 0.058272
vt 0.673960 0.058272
vt 0.673960 0.250000
vn -0.000000 -1.000000 0.000000
vn -0.000000 -1.000000 0.000000
vn -0.000000 -1.000000 0.000000
vn -0.000000 -1.000000 0.000000
vn 0.000000 1.000000 0.000000
vn 0.000000 1.000000 0.000000
vn 0.000000 1.000000 0.000000
vn 0.000000 1.000000 0.000000
vn 1.000000 0.000002 0.000000
vn 1.000000 0.000002 0.000000
vn 1.000000 0.000002 0.000000
vn 1.000000 0.000002 0.000000
vn 0.000000 0.000000 -1.000000
vn 0.000000 0.000000 -1.000000
vn 0.000000 0.000000 -1.000000
vn 0.000000 0.000000 -1.000000
vn 0.000000 0.000000 -1.000000
vn 0.000000 0.000000 -1.000000
vn 0.000000 0.000000 -1.000000
vn 0.000000 0.000000 -1.000000
vn 0.000000 0.000000 -1.000000
vn 0.000000 0.000000 -1.000000
vn 0.000000 0.000000 -1.000000
vn 0.000000 0.000000 -1.000000
vn -1.000000 -0.000001 -0.000000
vn -1.000000 -0.000001 -0.000000
vn -1.000000 -0.000001 -0.000000
vn -1.000000 -0.000001 -0.000000
vn -1.000000 0.000000 0.000000
vn -1.000000 0.000000 0.000000
vn -1.000000 0.000000 0.000000
vn -1.000000 0.000000 0.000000
vn 1.000000 -0.000000 0.000000
vn 1.000000 -0.000000 0.000000
vn 1.000000 -0.000000 0.000000
vn 1.000000 -0.000000 0.000000
vn 0.000000 0.000000 -1.000000
vn 0.000000 0.000000 -1.000000
vn 0.000000 0.000000 -1.000000
vn 0.000000 0.000000 -1.000000
vn 0.000000 0.000000 -1.000000
vn 0.000000 0.000000 -1.000000
vn 0.000000 0.000000 -1.000000
vn 0.000000 0.000000 -1.000000
vn 1.000000 -0.000000 0.000000
vn 1.000000 -0.000000 0.000000
vn 1.000000 -0.000000 0.000000
vn 1.000000 -0.000000 0.000000
vn 1.000000 -0.000000 0.000000
vn 1.000000 -0.000000 0.000000
vn 1.000000 -0.000000 0.000000
vn 1.000000 -0.000000 0.000000
vn 0.000000 0.000000 1.000000
vn 0.000000 0.000000 1.000000
vn 0.000000 0.000000 1.000000
vn 0.000000 0.000000 1.000000
vn -1.000000 0.000000 0.000000
vn -1.000000 0.000000 0.000000
vn -1.000000 0.000000 0.000000
vn -1.000000 0.000000 0.000000
vn -1.000000 0.000000 0.000000
vn -1.000000 0.000000 0.000000
vn -1.000000 0.000000 0.000000
vn -1.000000 0.000000 0.000000
vn 0.000000 0.000000 -1.000000
vn 0.000000 0.000000 -1.000000
vn 0.000000 0.000000 -1.000000
vn 0.000000 0.000000 -1.000000
vn 0.000000 1.000000 0.000000
vn 0.000000 1.000000 0.000000
vn 0.000000 1.000000 0.000000
vn 0.000000 1.000000 0.000000
vn 0.000000 1.000000 0.000000
vn 0.000000 1.000000 0.000000
vn 0.000000 1.000000 0.000000
vn 0.000000 1.000000 0.000000
vn -0.000000 -1.000000 0.000001
vn -0.000000 -1.000000 0.000001
vn -0.000000 -1.000000 0.000001
vn -0.000000 -1.000000 0.000001
vn -0.000000 -1.000000 0.000001
vn -0.000000 -1.000000 0.000001
vn -0.000000 -1.000000 0.000001
vn -0.000000 -1.000000 0.000001
vn 0.000000 0.000000 -1.000000
vn 0.000000 0.000000 -1.000000
vn 0.000000 0.000000 -1.000000
vn 0.000000 0.000000 -1.000000
vn 0.000000 1.000000 0.000000
vn 0.000000 1.000000 0.000000
vn 0.000000 1.000000 0.000000
vn 0.000000 1.000000 0.000000
vn -0.000000 -1.000000 0.000000
vn -0.000000 -1.000000 0.000000
vn -0.000000 -1.000000 0.000000
vn -0.000000 -1.000000 0.000000
s off
g transporterband:polySurface3
usemtl transporterband:initialShadingGroup
f 1/1/1 2/2/2 3/3/3 4/4/4
f 5/5/5 6/6/6 7/7/7 8/8/8
f 9/9/9 10/10/10 11/11/11 12/12/12
f 5/13/13 13/14/14 11/15/15 10/16/16 14/17/17 2/18/18 1/19/19 15/20/20 16/21/21 17/22/22 18/23/23 6/24/24
f 19/25/25 13/26/26 5/27/27 8/28/28
f 17/29/29 16/30/30 20/31/31 21/32/32
f 4/33/33 22/34/34 15/35/35 1/36/36
f 9/37/37 12/38/38 23/39/39 24/40/40
f 22/41/41 4/42/42 3/43/43 25/44/44
f 18/45/45 26/46/46 27/47/47 28/48/48 29/49/49 30/50/50 7/51/51 6/52/52
f 29/49/53 28/48/54 31/53/55 32/54/56
f 14/55/57 24/56/58 23/39/59 32/54/60 31/53/61 25/44/62 3/57/63 2/58/64
f 19/59/65 8/60/66 7/61/67 30/62/68
f 15/63/69 22/64/70 25/65/71 31/66/72 28/48/73 27/47/74 20/67/75 16/68/76
f 11/69/77 13/70/78 19/71/79 30/50/80 29/49/81 32/72/82 23/73/83 12/74/84
f 21/75/85 20/76/86 27/77/87 26/78/88
f 10/79/89 9/80/90 24/81/91 14/82/92
f 17/83/93 21/84/94 26/85/95 18/86/96
g default
v -0.550000 -0.700000 1.163426
v -0.450000 -0.700000 1.163426
v -0.450000 -0.700000 1.263426
v -0.550000 -0.700000 1.263426
v -0.450000 -0.317852 1.163426
v -0.550000 -0.317852 1.163426
v -0.450000 -0.317852 1.263426
v -0.550000 -0.317852 1.263426
v -0.400000 -0.317852 1.313426
v -0.400000 -0.317852 1.113426
v -0.500000 -0.105490 1.213426
v -0.600000 -0.317852 1.313426
v -0.600000 -0.317852 1.113426
vt 0.500000 0.000000
vt 0.250000 0.250000
vt 0.500000 0.500000
vt 0.750000 0.250000
vt 0.250000 0.500000
vt 0.375000 0.500000
vt 0.500000 0.500000
vt 0.625000 0.500000
vt 0.750000 0.500000
vt 0.500000 1.000000
vt 0.625000 0.000000
vt 0.625000 0.250000
vt 0.625000 0.500000
vt 0.625000 0.750000
vt 0.625000 1.000000
vt 0.875000 0.000000
vt 0.875000 0.250000
vt 0.386157 1.000000
vt 0.386157 0.750000
vt 0.386157 0.750000
vt 0.386157 0.500000
vt 0.386157 0.500000
vt 0.386157 0.250000
vt 0.386157 0.250000
vt 0.386157 0.000000
vt 0.500000 0.375000
vt 0.375000 0.250000
vt 0.500000 0.125000
vt 0.625000 0.250000
vn 0.000000 -1.000000 -0.000000
vn 0.000000 -1.000000 -0.000000
vn 0.000000 -1.000000 -0.000000
vn 0.000000 -1.000000 -0.000000
vn -0.000000 -0.000000 -1.000000
vn -0.000000 -0.000000 -1.000000
vn -0.000000 -0.000000 -1.000000
vn -0.000000 -0.000000 -1.000000
vn 1.000000 0.000000 -0.000000
vn 1.000000 0.000000 -0.000000
vn 1.000000 0.000000 -0.000000
vn 1.000000 0.000000 -0.000000
vn 0.000000 0.000000 1.000000
vn 0.000000 0.000000 1.000000
vn 0.000000 0.000000 1.000000
vn 0.000000 0.000000 1.000000
vn -1.000000 -0.000000 0.000000
vn -1.000000 -0.000000 0.000000
vn -1.000000 -0.000000 0.000000
vn -1.000000 -0.000000 0.000000
vn 0.904712 0.426024 -0.000000
vn 0.904712 0.426024 -0.000000
vn 0.904712 0.426024 -0.000000
vn 0.000000 0.426024 0.904712
vn 0.000000 0.426024 0.904712
vn 0.000000 0.426024 0.904712
vn -0.904712 0.426024 -0.000000
vn -0.904712 0.426024 -0.000000
vn -0.904712 0.426024 -0.000000
vn -0.000000 0.426025 -0.904712
vn -0.000000 0.426025 -0.904712
vn -0.000000 0.426025 -0.904712
vn 0.000000 -1.000000 -0.000000
vn 0.000000 -1.000000 -0.000000
vn 0.000000 -1.000000 -0.000000
vn 0.000000 -1.000000 -0.000000
vn 0.000000 -1.000000 -0.000000
vn 0.000000 -1.000000 -0.000000
vn 0.000000 -1.000000 -0.000000
vn 0.000000 -1.000000 -0.000000
s off
g pasted__polySurface2 group
usemtl initialShadingGroup
f 33/97/97 34/102/98 35/103/99 36/98/100
f 37/105/101 34/100/102 33/101/103 38/104/104
f 39/107/105 35/99/106 34/100/107 37/106/108
f 40/109/109 36/98/110 35/99/111 39/108/112
f 38/111/113 33/97/114 36/98/115 40/110/116
f 41/94/117 42/95/118 43/96/119
f 44/93/120 41/94/121 43/96/122
f 45/92/123 44/93/124 43/96/125
f 42/91/126 45/92/127 43/96/128
f 42/87/129 41/90/130 44/89/131 45/88/132 39/115/133 37/114/134 38/113/135 40/112/136
